# xmcd
#
# Track frame offsets:
#	150
#	20484
#	44213
#	73700
#	97388
#	120517
#	144489
#	166651
#	193597
#	212406
#	228216
#	245507
#	269456
#	285457
#	301018
#	318558
#
# Disc length: 4355
#
# Revision: 10
# Processed by: cddbd v1.5.1PL0 Copyright (c) Steve Scherf et al.
# Submitted via: CDex 1.40Beta9
# Normalized: r9:TRMNUM
#
DISCID=e6110110
DTITLE=Новый исполнитель - Новое название
DYEAR=1900
DGENRE=Blues
TTITLE0=Дорожка 01.mp3
TTITLE1=Дорожка 02.mp3
TTITLE2=Дорожка 03.mp3
TTITLE3=Дорожка 04.mp3
TTITLE4=Дорожка 05.mp3
TTITLE5=Дорожка 06.mp3
TTITLE6=Дорожка 07.mp3
TTITLE7=Дорожка 08.mp3
TTITLE8=Дорожка 09.mp3
TTITLE9=Дорожка 10.mp3
TTITLE10=Дорожка 11.mp3
TTITLE11=Дорожка 12.mp3
TTITLE12=Дорожка 13.mp3
TTITLE13=Дорожка 14.mp3
TTITLE14=Дорожка 15.mp3
TTITLE15=Дорожка 16.mp3
EXTD=DNOTES ID3G: 0
EXTT0=
EXTT1=
EXTT2=
EXTT3=
EXTT4=
EXTT5=
EXTT6=
EXTT7=
EXTT8=
EXTT9=
EXTT10=
EXTT11=
EXTT12=
EXTT13=
EXTT14=
EXTT15=
PLAYORDER=
